<svg width="25" height="25" viewBox="0 0 30 30" fill="none" xmlns="http://www.w3.org/2000/svg">
<path fill-rule="evenodd" clip-rule="evenodd" d="M28.6453 10.0943L27.8736 11.592C26.3801 6.46736 21.9264 2.73377 16.5562 2.19764C13.7326 1.91521 10.9564 2.53221 8.52597 3.98064C6.14414 5.40037 4.30136 7.48748 3.19746 10.0164C3.17895 10.0587 3.16897 10.1043 3.16808 10.1504C3.1672 10.1966 3.17543 10.2425 3.1923 10.2855C3.20917 10.3285 3.23435 10.3677 3.2664 10.401C3.29846 10.4342 3.33675 10.4608 3.3791 10.4793C3.46458 10.5165 3.56132 10.5182 3.64811 10.4842C3.73489 10.4501 3.80462 10.383 3.84199 10.2976C6.00937 5.3324 11.0906 2.35818 16.4865 2.89725C21.6117 3.40877 25.8545 6.99764 27.2326 11.9107L25.5996 11.0693C25.4268 10.9803 25.2146 11.0482 25.1262 11.2205C25.0371 11.3933 25.1051 11.6054 25.2773 11.6939L27.6 12.891C27.6504 12.9168 27.7055 12.9297 27.7611 12.9297C27.7969 12.9297 27.8332 12.9244 27.8684 12.9133C27.9569 12.8844 28.0306 12.8219 28.0734 12.7392L29.2699 10.4166C29.359 10.2437 29.291 10.0316 29.1187 9.94314C28.9459 9.85408 28.7338 9.92205 28.6453 10.0943ZM5.1416 18.3297L2.85703 17.0617C2.77558 17.0166 2.67949 17.0055 2.58984 17.0312C2.50019 17.057 2.42402 17.1168 2.3789 17.1988L1.11152 19.4834C1.01718 19.6527 1.07812 19.8672 1.24804 19.9609C1.30195 19.9914 1.36054 20.0054 1.41855 20.0054C1.48131 20.0054 1.54291 19.9886 1.597 19.9568C1.65108 19.925 1.69568 19.8792 1.72617 19.8244L2.54414 18.3508C3.8789 23.5158 8.22421 27.3906 13.565 28.0914C14.1463 28.1676 14.7264 28.2056 15.3029 28.2056C17.5189 28.2056 19.6834 27.6467 21.6463 26.5574C24.0715 25.2121 25.9775 23.183 27.1594 20.6892C27.2426 20.514 27.1676 20.3043 26.9918 20.2211C26.8166 20.1379 26.6068 20.2129 26.5236 20.3881C24.2039 25.2842 19.033 28.1002 13.6564 27.3941C8.55937 26.7256 4.42031 23.0025 3.19394 18.0525L4.80058 18.9443C4.9705 19.0387 5.18437 18.9771 5.27871 18.8078C5.37246 18.6379 5.31152 18.424 5.1416 18.3297ZM10.6641 14.6722C10.7332 14.8539 10.6418 15.0566 10.4602 15.1258C10.3729 15.1587 10.2761 15.1556 10.1911 15.1173C10.1061 15.079 10.0397 15.0085 10.0066 14.9213C9.94335 14.7543 9.74648 14.6371 9.52734 14.6371C9.25722 14.6371 9.02871 14.8164 9.02871 15.0285C9.02871 15.1334 9.06972 15.2599 9.18632 15.2998L9.6205 15.4486C9.62578 15.4504 9.63105 15.4527 9.63632 15.4545L10.1678 15.6666C10.493 15.7961 10.6869 16.1207 10.6869 16.5344C10.6869 17.0189 10.3389 17.4308 9.85781 17.5738V18.0004C9.85781 18.1949 9.70019 18.3519 9.50625 18.3519C9.3123 18.3519 9.15468 18.1949 9.15468 18.0004V17.5855C8.78378 17.4888 8.47851 17.234 8.34843 16.8906C8.27929 16.709 8.3707 16.5056 8.55234 16.4371C8.73398 16.3679 8.93671 16.4599 9.00585 16.6416C9.06914 16.8086 9.26601 16.9252 9.48515 16.9252C9.75527 16.9252 9.98378 16.7465 9.98378 16.5344C9.98378 16.4459 9.96035 16.3404 9.90761 16.3199L9.38437 16.1113L8.95839 15.9654C8.57402 15.8336 8.32558 15.4656 8.32558 15.0285C8.32558 14.5433 8.67421 14.132 9.15468 13.989V13.5619C9.15468 13.3679 9.3123 13.2103 9.50625 13.2103C9.70019 13.2103 9.85781 13.3679 9.85781 13.5619V13.9773C10.2287 14.074 10.534 14.3289 10.6641 14.6722ZM23.2418 11.6892C23.3525 11.6892 23.4568 11.7414 23.523 11.8299C23.5559 11.8736 23.5781 11.9244 23.5879 11.9782C23.5977 12.032 23.5947 12.0873 23.5793 12.1398L21.8935 17.9002C21.8722 17.9732 21.8277 18.0373 21.7669 18.0829C21.7061 18.1285 21.6321 18.1532 21.5561 18.1533H12.426C12.1492 18.4937 11.8153 18.7834 11.4393 19.0094L11.7252 19.9861C11.8301 20.3459 12.1107 20.5961 12.4641 20.6611C12.6082 19.7822 13.3728 19.109 14.2928 19.109C15.218 19.109 15.9873 19.791 16.1244 20.6787H18.3527C18.515 19.8215 19.2691 19.1711 20.1732 19.1711C21.0768 19.1711 21.8314 19.8215 21.9937 20.6787H23.3508C23.5453 20.6787 23.7023 20.8363 23.7023 21.0303C23.7023 21.2248 23.5453 21.3818 23.3508 21.3818H21.992C21.825 22.2338 21.0732 22.8783 20.1732 22.8783C19.2732 22.8783 18.5215 22.2338 18.3545 21.3818H16.0975C15.907 22.2027 15.1705 22.8162 14.2928 22.8162C13.4115 22.8162 12.6727 22.1986 12.4852 21.3736C11.8102 21.3086 11.2441 20.8474 11.0502 20.1836L10.7965 19.317C10.3832 19.4683 9.94639 19.5454 9.50625 19.5449C7.43085 19.5449 5.74277 17.8568 5.74277 15.7814C5.74277 13.975 7.02246 12.4621 8.72226 12.1L8.2875 10.5771C8.16621 10.1529 7.80292 9.87869 7.36171 9.87869H6.45937C6.26542 9.87869 6.10781 9.72107 6.10781 9.52713C6.10781 9.3326 6.26542 9.17557 6.45937 9.17557H7.36171C8.11347 9.17557 8.75742 9.66131 8.96367 10.3844L9.33632 11.6892H23.2418ZM9.50625 12.7205C11.1937 12.7205 12.5672 14.0939 12.5672 15.7814C12.5672 17.4689 11.1937 18.8418 9.50625 18.8418C7.81875 18.8418 6.44589 17.4689 6.44589 15.7814C6.44589 14.0939 7.81875 12.7205 9.50625 12.7205Z" fill="white"/>
</svg>
