<svg width="1258" height="969" viewBox="0 0 1258 969" fill="none" xmlns="http://www.w3.org/2000/svg">
<mask id="path-1-outside-1_211_3" maskUnits="userSpaceOnUse" x="770" y="0" width="128" height="88" fill="black">
<rect fill="white" x="770" width="128" height="88"/>
<path d="M789 39C789 27.9543 797.954 19 809 19H859C870.046 19 879 27.9543 879 39V68C879 79.0457 870.046 88 859 88H809C797.954 88 789 79.0457 789 68V39Z"/>
</mask>
<path d="M789 39C789 27.9543 797.954 19 809 19H859C870.046 19 879 27.9543 879 39V68C879 79.0457 870.046 88 859 88H809C797.954 88 789 79.0457 789 68V39Z" fill="#D9D9D9"/>
<path d="M770 39C770 17.4609 787.461 0 809 0H859C880.539 0 898 17.4609 898 39H860C860 38.4477 859.552 38 859 38H809C808.448 38 808 38.4477 808 39H770ZM879 88H789H879ZM809 88C787.461 88 770 70.5391 770 49V39C770 17.4609 787.461 0 809 0V38C808.448 38 808 38.4477 808 39V68C808 79.0457 808.448 88 809 88ZM859 0C880.539 0 898 17.4609 898 39V49C898 70.5391 880.539 88 859 88C859.552 88 860 79.0457 860 68V39C860 38.4477 859.552 38 859 38V0Z" fill="#212222" mask="url(#path-1-outside-1_211_3)"/>
<circle cx="834" cy="51" r="12.5" fill="#FDFDFD" stroke="#212222" stroke-width="5"/>
<circle cx="834" cy="51" r="4" fill="black"/>
<mask id="path-5-outside-2_211_3" maskUnits="userSpaceOnUse" x="751" y="68" width="165" height="174" fill="black">
<rect fill="white" x="751" y="68" width="165" height="174"/>
<path d="M771 102C771 90.9543 779.954 82 791 82H876C887.046 82 896 90.9543 896 102V202C896 213.046 887.046 222 876 222H791C779.954 222 771 213.046 771 202V102Z"/>
</mask>
<path d="M771 102C771 90.9543 779.954 82 791 82H876C887.046 82 896 90.9543 896 102V202C896 213.046 887.046 222 876 222H791C779.954 222 771 213.046 771 202V102Z" fill="#D8D8D8"/>
<path d="M751 102C751 83.2223 766.222 68 785 68H882C900.778 68 916 83.2223 916 102H876C876 98.6863 876 96 876 96H791C791 96 791 98.6863 791 102H751ZM916 202C916 224.091 898.091 242 876 242H791C768.909 242 751 224.091 751 202H791H876H916ZM791 242C768.909 242 751 224.091 751 202V102C751 83.2223 766.222 68 785 68L791 96C791 96 791 98.6863 791 102V202V242ZM882 68C900.778 68 916 83.2223 916 102V202C916 224.091 898.091 242 876 242V202V102C876 98.6863 876 96 876 96L882 68Z" fill="#212222" mask="url(#path-5-outside-2_211_3)"/>
<path d="M1034.03 847.457C963.87 837.243 888.272 831.634 899.028 834.957C915.683 868.198 936.399 881.822 990.528 898.957C1049.83 868.323 1052.27 858.788 1034.03 847.457Z" fill="#BFB6F4" stroke="#212222" stroke-width="20"/>
<rect x="531" y="212" width="606" height="618" rx="80" fill="#BFB6F4" stroke="#212222" stroke-width="20"/>
<rect x="582" y="268" width="503" height="430" rx="31" fill="#9080F2"/>
<path d="M649.066 768.072C616.475 767.722 600.616 763.429 582 739C589.602 781.779 604.17 794.442 646.564 799L1040.95 795.907C1074.63 787.583 1084.44 774.224 1090 739C1075.46 756.035 1065.18 763.602 1036.95 768.072H649.066Z" fill="#9080F2"/>
<path d="M777.5 956C741.5 932.5 693 843.5 693 843.5L778 840C778 840 813.5 979.5 777.5 956Z" fill="#BFB6F4" stroke="#212222" stroke-width="20"/>
<path d="M402.153 477.5C429.688 454.405 459.267 448.607 527.653 443L530.153 522C436.457 502.999 399.285 492.916 402.153 477.5Z" fill="#BFB6F4" stroke="#212222" stroke-width="20"/>
<path d="M1243 575.5C1258.67 541.142 1230.24 495.596 1148 430V537C1212.28 570.856 1242.24 585.633 1243 575.5Z" fill="#BFB6F4" stroke="#212222" stroke-width="20"/>
<rect x="593" y="285" width="372" height="401" rx="31" fill="#B1A4FF"/>
<path d="M731 652.881C733.134 670.107 736.788 677.995 752 686H676.5C665.959 677.832 662.472 671.369 658 658.485L662 316.591C659.298 300.524 664.326 294.415 676.5 285H748C736.777 295.499 732.875 302.196 731 316.591V652.881Z" fill="#DAD4FC"/>
<path d="M831 373C828.517 528.034 796.301 572.519 715 619L729 645C806.147 601.991 844.059 565.626 856 373L871.5 363.5V285H813.5L817.5 363.5L831 373Z" fill="#E7E3FF"/>
<circle cx="922" cy="628" r="17" fill="#9080F2"/>
<circle cx="862" cy="550" r="9" fill="#9080F2"/>
<path d="M737 459.5C737 438.789 720.211 422 699.5 422C678.789 422 662 438.789 662 459.5" stroke="#212222" stroke-width="15"/>
<path d="M926 459.5C926 438.789 909.211 422 888.5 422C867.789 422 851 438.789 851 459.5" stroke="#212222" stroke-width="15"/>
<path d="M729 516H723V522V553C723 598.84 760.16 636 806 636C851.84 636 889 598.84 889 553V522V516H883H729Z" fill="#9080F2" stroke="#212222" stroke-width="12"/>
<path d="M803.731 570.107C780.858 570.955 753.237 575.288 752.036 600.218C750.739 627.15 784.557 631.092 809.252 629.781C831.674 628.592 858.461 624.651 859.944 600.218C861.558 573.599 828.174 569.201 803.731 570.107Z" fill="#BFB6F4"/>
<path d="M729 522H883V522C883 540.225 868.225 555 850 555H762C743.775 555 729 540.225 729 522V522Z" fill="white"/>
<ellipse cx="771.5" cy="441" rx="10.5" ry="10" fill="#E7E3FF"/>
<ellipse cx="782" cy="336" rx="18" ry="17" fill="#E7E3FF"/>
<path d="M265.499 747.314L301.541 796.393C304.36 812.556 295.329 818.355 257.83 820.932L33.9075 810.963M265.499 747.314L293.073 668.711M265.499 747.314L234.825 744.198M93.7225 557.133H4L10.923 614.647M93.7225 557.133V729.864M93.7225 557.133H165.04M93.7225 729.864L23.9383 722.774L17.4307 668.711M93.7225 729.864L165.04 737.109M10.923 614.647H312.039M10.923 614.647L17.4307 668.711M312.039 614.647L332.216 557.133H234.825M312.039 614.647L293.073 668.711M17.4307 668.711H293.073M165.04 557.133V737.109M165.04 557.133H234.825M165.04 737.109L234.825 744.198M234.825 557.133V744.198" stroke="#212222" stroke-width="7"/>
<path d="M313.045 558.669C313.045 558.669 319.18 489.665 326.082 485.051C332.983 480.437 402.001 485.051 402.001 485.051" stroke="#212222" stroke-width="8"/>
<circle cx="101.39" cy="860.043" r="36.9412" stroke="#212222" stroke-width="11"/>
<circle cx="101.392" cy="860.044" r="13.0366" fill="#212222"/>
</svg>
